<?xml version="1.0" encoding="utf-8"?>
<!-- Generator: Adobe Illustrator 19.0.0, SVG Export Plug-In . SVG Version: 6.00 Build 0)  -->
<svg version="1.1" xmlns="http://www.w3.org/2000/svg" xmlns:xlink="http://www.w3.org/1999/xlink" x="0px" y="0px"
	 viewBox="0 0 600 600" style="enable-background:new 0 0 600 600;" xml:space="preserve">
<style type="text/css">
	.st0{fill:#4BF111;}
	.st1{fill:#FFFFFF;}
	.st2{fill:none;stroke:#FFFFFF;stroke-width:7;stroke-miterlimit:10;}
</style>
<g id="background">
	<path id="XMLID_61_" class="st0" d="M510.5,575.9H92.7c-36.3,0-66.1-29.7-66.1-66.1V92c0-36.3,29.7-66.1,66.1-66.1h417.9
		c36.3,0,66.1,29.7,66.1,66.1v417.9C576.6,546.2,546.9,575.9,510.5,575.9z"/>
</g>
<g id="backward">
	<polygon id="XMLID_60_" class="st1" points="158.9,302.2 309.6,170.1 309.6,269.6 416.4,170.1 416.4,431.8 309.6,334.2 
		309.6,431.8 	"/>
</g>
<g id="border">
	<path id="XMLID_59_" class="st2" d="M478.7,544.1H124.5c-36.3,0-66.1-29.7-66.1-66.1V123.8c0-36.3,29.7-66.1,66.1-66.1h354.1
		c36.3,0,66.1,29.7,66.1,66.1V478C544.8,514.3,515,544.1,478.7,544.1z"/>
</g>
</svg>
