<?xml version="1.0" encoding="utf-8"?>
<!-- Generator: Adobe Illustrator 19.0.0, SVG Export Plug-In . SVG Version: 6.00 Build 0)  -->
<svg version="1.1" class="mainIcon" id="play" xmlns="http://www.w3.org/2000/svg" xmlns:xlink="http://www.w3.org/1999/xlink" x="0px" y="0px"
	 viewBox="0 0 600 600" style="enable-background:new 0 0 600 600;" xml:space="preserve">
<style type="text/css">
	.st0{fill:#5456CA;}
	.st1{fill:#FFFFFF;}
	.st2{fill:none;stroke:#FFFFFF;stroke-width:7;stroke-miterlimit:10;}
</style>
<g id="background">
	<path id="XMLID_6_" class="st0" d="M509.3,578.8H91.4c-36.3,0-66.1-29.7-66.1-66.1V94.9c0-36.3,29.7-66.1,66.1-66.1h417.9
		c36.3,0,66.1,29.7,66.1,66.1v417.9C575.4,549.1,545.6,578.8,509.3,578.8z"/>
</g>
<g id="play">
	<path id="XMLID_7_" class="st1" d="M300.4,157.4c-80.9,0-146.4,65.6-146.4,146.4s65.6,146.4,146.4,146.4
		c80.9,0,146.4-65.6,146.4-146.4S381.2,157.4,300.4,157.4z M236,392.3V213.7l174.2,90.1L236,392.3z"/>
</g>
<g id="border">
	<path id="XMLID_21_" class="st2" d="M477.4,547H123.3c-36.3,0-66.1-29.7-66.1-66.1V126.8c0-36.3,29.7-66.1,66.1-66.1h354.1
		c36.3,0,66.1,29.7,66.1,66.1v354.1C543.5,517.2,513.8,547,477.4,547z"/>
</g>
</svg>
