<?xml version="1.0" encoding="utf-8"?>
<!-- Generator: Adobe Illustrator 19.0.0, SVG Export Plug-In . SVG Version: 6.00 Build 0)  -->
<svg version="1.1" class="mainIcon" id="headphone" xmlns="http://www.w3.org/2000/svg" xmlns:xlink="http://www.w3.org/1999/xlink" x="0px" y="0px"
	 viewBox="0 0 600 600" style="enable-background:new 0 0 600 600;" xml:space="preserve">
<style type="text/css">
	.st0{fill:#463A62;}
	.st0:hover{display:block; fill:#ff1a3a;}
	.st1{fill:#FFFFFF;}
	.st2{fill:none;stroke:#FFFFFF;stroke-width:7;stroke-miterlimit:10;}

	#border {
		display: block;
	}

	@media screen and (max-width: 100px) {

	#border {
		display: none;
		}

	}
	
</style>
<g id="background">
	<path id="XMLID_5_" class="st0" d="M510.4,578.6H92.5c-36.3,0-66.1-29.7-66.1-66.1V94.7c0-36.3,29.7-66.1,66.1-66.1h417.9
		c36.3,0,66.1,29.7,66.1,66.1v417.9C576.5,548.9,546.7,578.6,510.4,578.6z"/>
</g>
<g id="headphone">
	<g id="XMLID_15_">
		<path id="XMLID_13_" class="st1" d="M302.1,161.2c168.7,0,154.3,154.9,154.3,154.9c26.2,8.5,45,33.4,45,62.5
			c0,36.2-29.5,65.7-65.7,65.7h-10.5V299.4c0,0,0.7-111-123.8-111h0.1c-124.5,0-123.8,111-123.8,111v144.8h-10.5
			c-36.2,0-65.7-29.5-65.7-65.7c0-29.1,18.8-53.9,45-62.5c0,0-13.4-154.9,155.3-154.9H302.1z"/>
		<path id="XMLID_14_" class="st1" d="M221.6,446h-33.4c-0.4,0-0.7-0.3-0.7-0.7V322.5c0-0.4,0.3-0.7,0.7-0.7h33.4
			c0.4,0,0.7,0.3,0.7,0.7v122.8C222.3,445.7,222,446,221.6,446z"/>
		<path id="XMLID_16_" class="st1" d="M414.5,446h-33.4c-0.4,0-0.7-0.3-0.7-0.7V322.5c0-0.4,0.3-0.7,0.7-0.7h33.4
			c0.4,0,0.7,0.3,0.7,0.7v122.8C415.2,445.7,414.9,446,414.5,446z"/>
	</g>
</g>
<g id="border">
	<path id="XMLID_19_" class="st2" d="M478.5,546.7H124.4c-36.3,0-66.1-29.7-66.1-66.1V126.5c0-36.3,29.7-66.1,66.1-66.1h354.1
		c36.3,0,66.1,29.7,66.1,66.1v354.1C544.6,517,514.9,546.7,478.5,546.7z"/>
</g>
</svg>
