<?xml version="1.0" encoding="utf-8"?>
<!-- Generator: Adobe Illustrator 19.0.0, SVG Export Plug-In . SVG Version: 6.00 Build 0)  -->
<svg version="1.1" class="mainIcon" id="forward" xmlns="http://www.w3.org/2000/svg" xmlns:xlink="http://www.w3.org/1999/xlink" x="0px" y="0px"
	 viewBox="0 0 600 600" style="enable-background:new 0 0 600 600;" xml:space="preserve">
<style type="text/css">
	.st0{fill:#FF5D0F;}
	.st0:hover{display:block; fill:#ff1a3a;}
	.st1{fill:#FFFFFF;}
	.st2{fill:none;stroke:#FFFFFF;stroke-width:7;stroke-miterlimit:10;}

		#border {
		display: block;
	}

	@media screen and (max-width: 100px) {

	#border {
		display: none;
		}

	}
	
</style>
<g id="background">
	<path id="XMLID_3_" class="st0" d="M510.7,575.9H92.9c-36.3,0-66.1-29.7-66.1-66.1V92c0-36.3,29.7-66.1,66.1-66.1h417.9
		c36.3,0,66.1,29.7,66.1,66.1v417.9C576.8,546.2,547.1,575.9,510.7,575.9z"/>
</g>
<g id="forward">
	<polygon id="XMLID_48_" class="st1" points="439.6,302.2 288.9,170.1 288.9,269.6 182.1,170.1 182.1,431.8 288.9,334.2 
		288.9,431.8 	"/>
</g>
<g id="border">
	<path id="XMLID_58_" class="st2" d="M478.9,544.1H124.7c-36.3,0-66.1-29.7-66.1-66.1V123.8c0-36.3,29.7-66.1,66.1-66.1h354.1
		c36.3,0,66.1,29.7,66.1,66.1V478C545,514.3,515.2,544.1,478.9,544.1z"/>
</g>
</svg>
