<?xml version="1.0" encoding="utf-8"?>
<!-- Generator: Adobe Illustrator 19.0.0, SVG Export Plug-In . SVG Version: 6.00 Build 0)  -->
<svg version="1.1" xmlns="http://www.w3.org/2000/svg" xmlns:xlink="http://www.w3.org/1999/xlink" x="0px" y="0px"
	 viewBox="0 0 600 600" style="enable-background:new 0 0 600 600;" xml:space="preserve">
<style type="text/css">
	.st0{fill:#FF3A62;}
	.st1{fill:#FFFFFF;}
	.st2{fill:none;stroke:#FFFFFF;stroke-width:7;stroke-miterlimit:10;}
</style>
<g id="background">
	<path id="XMLID_23_" class="st0" d="M509.5,574.8H91.6c-36.3,0-66.1-29.7-66.1-66.1V90.8c0-36.3,29.7-66.1,66.1-66.1h417.9
		c36.3,0,66.1,29.7,66.1,66.1v417.9C575.5,545,545.8,574.8,509.5,574.8z"/>
</g>
<g id="heart">
	<path id="XMLID_26_" class="st1" d="M300.5,436.5c0,0-174.7-125.3-143.4-225.9c29.2-93.6,143.4-20.1,143.4-20.1
		s114.3-73.6,143.5,20C475.3,311.1,300.5,436.5,300.5,436.5z"/>
</g>
<g id="border">
	<path id="XMLID_18_" class="st2" d="M477.6,542.9H123.5c-36.3,0-66.1-29.7-66.1-66.1V122.7c0-36.3,29.7-66.1,66.1-66.1h354.1
		c36.3,0,66.1,29.7,66.1,66.1v354.1C543.7,513.2,513.9,542.9,477.6,542.9z"/>
</g>
</svg>
