<?xml version="1.0" encoding="utf-8"?>
<!-- Generator: Adobe Illustrator 19.0.0, SVG Export Plug-In . SVG Version: 6.00 Build 0)  -->
<svg version="1.1" class="mainIcon" id="search" xmlns="http://www.w3.org/2000/svg" xmlns:xlink="http://www.w3.org/1999/xlink" x="0px" y="0px"
	 viewBox="0 0 600 600" style="enable-background:new 0 0 600 600;" xml:space="preserve">
<style type="text/css">
	.st0{fill:#B99355;}
	.st0:hover{display:block; fill:#ff1a3a;}
	.st1{fill:#FFFFFF;}
	.st2{fill:none;stroke:#FFFFFF;stroke-width:7;stroke-miterlimit:10;}

	#border {
		display: block;
	}

	@media screen and (max-width: 100px) {

	#border {
		display: none;
		}

	}

</style>
<g id="background">
	<path id="XMLID_17_" class="st0" d="M511.4,576.1H93.6c-36.3,0-66.1-29.7-66.1-66.1V92.2c0-36.3,29.7-66.1,66.1-66.1h417.9
		c36.3,0,66.1,29.7,66.1,66.1v417.9C577.5,546.4,547.8,576.1,511.4,576.1z"/>
</g>
<g id="search">
	<g id="XMLID_9_">
		<path id="XMLID_56_" class="st1" d="M242.9,155.1c-51.6,0-93.4,41.8-93.4,93.4s41.8,93.4,93.4,93.4c51.6,0,93.4-41.8,93.4-93.4
			S294.5,155.1,242.9,155.1z M242.9,314.7c-36.4,0-65.9-29.5-65.9-65.9c0-36.4,29.5-65.9,65.9-65.9c36.4,0,65.9,29.5,65.9,65.9
			C308.8,285.2,279.3,314.7,242.9,314.7z"/>
		<path id="XMLID_24_" class="st1" d="M296.1,325.7l130.8,121.5l28.6-32.6L322.7,297.8C322.7,297.8,312.6,312.8,296.1,325.7z"/>
	</g>
</g>
<g id="border">
	<path id="XMLID_57_" class="st2" d="M479.6,544.3H125.4c-36.3,0-66.1-29.7-66.1-66.1V124.1c0-36.3,29.7-66.1,66.1-66.1h354.1
		c36.3,0,66.1,29.7,66.1,66.1v354.1C545.6,514.5,515.9,544.3,479.6,544.3z"/>
</g>
</svg>
