<?xml version="1.0" encoding="utf-8"?>
<!-- Generator: Adobe Illustrator 19.0.0, SVG Export Plug-In . SVG Version: 6.00 Build 0)  -->
<svg version="1.1" class="mainIcon" id="less_sound" xmlns="http://www.w3.org/2000/svg" xmlns:xlink="http://www.w3.org/1999/xlink" x="0px" y="0px"
	 viewBox="0 0 600 600" style="enable-background:new 0 0 600 600;" xml:space="preserve">
<style type="text/css">
	.st0{fill:#803671;}
	.st1{fill:#FFFFFF;}
	.st2{fill:none;stroke:#FFFFFF;stroke-width:7;stroke-miterlimit:10;}
</style>
<g id="background">
	<path id="XMLID_22_" class="st0" d="M510.9,576.2H93.1c-36.3,0-66.1-29.7-66.1-66.1V92.3C27,56,56.7,26.2,93.1,26.2h417.9
		c36.3,0,66.1,29.7,66.1,66.1v417.9C577,546.5,547.3,576.2,510.9,576.2z"/>
</g>
<g id="less_x5F_sound">
	<g id="XMLID_38_">
		<path id="XMLID_31_" class="st1" d="M368.4,298.7c0,0,0,47.7,0,83.9s-42,16.9-42,16.9l-62.8-33.1c0,0-55.4,0-80.9,0
			s-23.1-36.2-23.1-36.2V301v-28.7c0,0-2.3-36.2,23.1-36.2s80.9,0,80.9,0l62.8-33.1c0,0,42-19.3,42,16.9S368.4,298.7,368.4,298.7z"
			/>
		<g id="XMLID_34_">
			<path id="XMLID_67_" class="st1" d="M409.7,362.9c0,0,0.4-0.4,1.1-1.2c0.7-0.8,1.9-1.8,3.2-3.3c0.6-0.7,1.4-1.4,2.1-2.3
				c0.7-0.9,1.6-1.8,2.4-2.8c0.8-1.1,1.7-2.1,2.5-3.3c0.8-1.2,1.7-2.4,2.6-3.7c0.4-0.7,0.8-1.3,1.3-2c0.2-0.3,0.4-0.7,0.7-1
				c0.2-0.4,0.4-0.7,0.6-1.1c0.4-0.7,0.8-1.5,1.2-2.2c0.4-0.7,0.8-1.5,1.2-2.3c0.8-1.5,1.5-3.2,2.2-4.8c0.4-0.8,0.6-1.7,1-2.5
				c0.3-0.9,0.7-1.7,0.9-2.6c0.3-0.9,0.6-1.8,0.8-2.7c0.2-0.9,0.5-1.8,0.7-2.7c0.3-0.9,0.4-1.8,0.6-2.8c0.2-0.9,0.4-1.9,0.5-2.8
				c0.1-1,0.3-1.9,0.4-2.9c0.1-1,0.2-1.9,0.3-2.9l0.1-1.4l0-1.5l0.1-2.7c-0.1-2.2-0.1-4.6-0.3-6.2l-0.1-1.3l-0.1-0.7l-0.1-0.7
				c-0.1-1-0.3-1.9-0.4-2.9c-0.1-0.9-0.4-1.9-0.6-2.8l-0.3-1.4l-0.4-1.4c-0.3-0.9-0.4-1.8-0.7-2.7c-0.3-0.9-0.6-1.8-0.9-2.7
				c-1.2-3.5-2.6-6.9-4.2-10c-1.5-3.1-3.3-6-5-8.6c-0.9-1.3-1.8-2.5-2.6-3.7c-0.9-1.1-1.8-2.2-2.6-3.3c-0.9-1-1.7-1.9-2.4-2.8
				c-0.8-0.9-1.5-1.6-2.2-2.3c-1.3-1.5-2.5-2.5-3.2-3.3c-0.8-0.8-1.2-1.2-1.2-1.2s0.6,0.1,1.6,0.4c1,0.3,2.6,0.6,4.5,1.4
				c0.9,0.4,2,0.7,3.1,1.3c1.1,0.5,2.3,1.1,3.6,1.8c1.2,0.7,2.5,1.5,3.9,2.4c1.3,0.9,2.7,1.9,4.1,3c2.7,2.3,5.6,5,8.2,8.2
				c2.7,3.2,5.1,7,7.2,11.1c0.5,1,1,2.1,1.5,3.2c0.5,1.1,0.9,2.2,1.3,3.3l0.6,1.7l0.5,1.7c0.3,1.2,0.7,2.3,1,3.5
				c1.1,4.5,1.7,10.4,1.7,14.4l0,0.2c0,0.6,0,0.2,0,0.3l0,0.1l0,0.1l0,0.5l0,0.9l-0.1,1.9c0,0.6,0,1.2-0.1,1.9l-0.2,1.8
				c-0.2,1.2-0.3,2.5-0.5,3.7c-0.2,1.2-0.5,2.4-0.7,3.6c-0.2,1.2-0.6,2.4-0.9,3.5c-0.3,1.2-0.7,2.3-1.1,3.4
				c-0.4,1.1-0.9,2.2-1.3,3.3c-0.5,1.1-1,2.1-1.5,3.2c-0.5,1.1-1,2-1.6,3c-0.6,1-1.1,2-1.7,2.9c-1.3,1.8-2.4,3.6-3.8,5.2
				c-2.6,3.3-5.5,6-8.2,8.3c-1.4,1.1-2.8,2.1-4.1,3.1c-1.4,0.9-2.7,1.7-3.9,2.4c-1.3,0.7-2.5,1.3-3.6,1.8c-1.1,0.5-2.2,0.9-3.2,1.3
				c-1.9,0.8-3.4,1.1-4.5,1.4C410.3,362.8,409.7,362.9,409.7,362.9z"/>
		</g>
	</g>
</g>
<g id="border">
	<path id="XMLID_4_" class="st2" d="M479.1,544.4H124.9c-36.3,0-66.1-29.7-66.1-66.1V124.2c0-36.3,29.7-66.1,66.1-66.1h354.1
		c36.3,0,66.1,29.7,66.1,66.1v354.1C545.2,514.7,515.4,544.4,479.1,544.4z"/>
</g>
</svg>
