<?xml version="1.0" encoding="utf-8"?>
<!-- Generator: Adobe Illustrator 19.0.0, SVG Export Plug-In . SVG Version: 6.00 Build 0)  -->
<svg version="1.1" class="mainIcon" id="no_sound" xmlns="http://www.w3.org/2000/svg" xmlns:xlink="http://www.w3.org/1999/xlink" x="0px" y="0px"
	 viewBox="0 0 600 600" style="enable-background:new 0 0 600 600;" xml:space="preserve">
<style type="text/css">
	.st0{fill:#FF3721;}
	.st0:hover{display:block; fill:#ff1a3a;}
	.st1{fill:#FFFFFF;}
	.st2{fill:none;stroke:#FFFFFF;stroke-width:7;stroke-miterlimit:10;}

		#border {
		display: block;
	}

	@media screen and (max-width: 100px) {

	#border {
		display: none;
		}

	}
	
</style>
<g id="background">
	<path id="XMLID_12_" class="st0" d="M93.5,576.4h417.9c36.3,0,66.1-29.7,66.1-66.1V92.5c0-36.3-29.7-66.1-66.1-66.1H93.5
		c-36.3,0-66.1,29.7-66.1,66.1v417.9C27.4,546.7,57.1,576.4,93.5,576.4z"/>
</g>
<g id="no_x5F_sound">
	<g id="XMLID_8_">
		<path id="XMLID_41_" class="st1" d="M347.7,298.9c0,0,0,47.7,0,83.9s-42,16.9-42,16.9L243,366.6c0,0-55.4,0-80.9,0
			S139,330.4,139,330.4v-29.3v-28.7c0,0-2.3-36.2,23.1-36.2s80.9,0,80.9,0l62.8-33.1c0,0,42-19.3,42,16.9S347.7,298.9,347.7,298.9z"
			/>
		<g id="XMLID_42_">
			<line id="XMLID_13_" class="st1" x1="381.6" y1="254.7" x2="465.8" y2="342"/>
			<path id="XMLID_11_" class="st1" d="M381.6,254.7c0,0,1.8,0.9,4.8,2.6c3,1.8,7,4.4,11.7,7.8c4.7,3.4,9.9,7.6,15.3,12.3
				c5.4,4.7,10.8,9.9,16.1,15.4c5.3,5.5,10.3,11.1,14.8,16.6c2.3,2.8,4.4,5.5,6.3,8.1c2,2.6,3.7,5.2,5.4,7.6c1.6,2.4,3,4.6,4.3,6.7
				c1.2,2,2.3,3.8,3.1,5.3c1.7,3,2.5,4.9,2.5,4.9s-1.8-0.9-4.8-2.6c-1.5-0.9-3.2-2-5.2-3.3c-2-1.3-4.2-2.8-6.5-4.5
				c-2.3-1.7-4.8-3.6-7.4-5.6c-2.6-2.1-5.2-4.3-7.9-6.6c-5.4-4.7-10.8-10-16.1-15.4c-5.3-5.5-10.3-11.1-14.8-16.7
				c-4.5-5.5-8.5-10.9-11.7-15.7c-3.2-4.8-5.7-9-7.4-12C382.4,256.6,381.6,254.7,381.6,254.7z"/>
		</g>
		<g id="XMLID_43_">
			<path id="XMLID_9_" class="st1" d="M465.8,254.7c0,0-0.8,1.8-2.5,4.9c-1.6,3-4.1,7.2-7.4,12c-3.2,4.8-7.2,10.2-11.7,15.7
				c-4.5,5.5-9.5,11.2-14.8,16.7c-5.3,5.5-10.7,10.7-16.1,15.4c-2.7,2.4-5.3,4.6-7.9,6.6c-2.6,2.1-5.1,3.9-7.4,5.6
				c-2.3,1.7-4.5,3.2-6.5,4.5c-2,1.3-3.7,2.4-5.2,3.3c-3,1.8-4.8,2.6-4.8,2.6s0.8-1.9,2.5-4.9c0.8-1.5,1.9-3.3,3.1-5.3
				c1.2-2,2.7-4.3,4.3-6.7c1.6-2.4,3.4-4.9,5.4-7.6c2-2.6,4.1-5.4,6.3-8.1c4.5-5.5,9.6-11.2,14.8-16.6c5.3-5.4,10.7-10.7,16.1-15.4
				c5.4-4.7,10.6-8.9,15.3-12.3c4.7-3.4,8.8-6,11.7-7.8C464,255.6,465.8,254.7,465.8,254.7z"/>
		</g>
	</g>
</g>
<g id="border">
	<path id="XMLID_30_" class="st2" d="M479.5,544.6H125.3c-36.3,0-66.1-29.7-66.1-66.1V124.4c0-36.3,29.7-66.1,66.1-66.1h354.1
		c36.3,0,66.1,29.7,66.1,66.1v354.1C545.5,514.8,515.8,544.6,479.5,544.6z"/>
</g>
</svg>
