<?xml version="1.0" encoding="utf-8"?>
<!-- Generator: Adobe Illustrator 19.0.0, SVG Export Plug-In . SVG Version: 6.00 Build 0)  -->
<svg version="1.1" class="mainIcon" id="more_sound" xmlns="http://www.w3.org/2000/svg" xmlns:xlink="http://www.w3.org/1999/xlink" x="0px" y="0px"
	 viewBox="0 0 600 600" style="enable-background:new 0 0 600 600;" xml:space="preserve">
<style type="text/css">
	.st0{fill:#0765AA;}
	.st0:hover{display:block; fill:#ff1a3a;}
	.st1{fill:#FFFFFF;}
	.st2{fill:none;stroke:#FFFFFF;stroke-width:7;stroke-miterlimit:10;}

	#border {
		display: block;
	}

	@media screen and (max-width: 100px) {

	#border {
		display: none;
		}

	}

</style>
<g id="background">
	<path id="XMLID_20_" class="st0" d="M511.1,575.6H93.3c-36.3,0-66.1-29.7-66.1-66.1V91.7c0-36.3,29.7-66.1,66.1-66.1h417.9
		c36.3,0,66.1,29.7,66.1,66.1v417.9C577.2,545.9,547.5,575.6,511.1,575.6z"/>
</g>
<g id="more_x5F_sound">
	<g id="XMLID_39_">
		<path id="XMLID_33_" class="st1" d="M331.8,295.8c0,0,0,47.7,0,83.9s-42,16.9-42,16.9l-62.8-33.1c0,0-55.4,0-80.9,0
			s-23.1-36.2-23.1-36.2v-29.3v-28.7c0,0-2.3-36.2,23.1-36.2s80.9,0,80.9,0l62.8-33.1c0,0,42-19.3,42,16.9S331.8,295.8,331.8,295.8z
			"/>
		<g id="XMLID_32_">
			<path id="XMLID_62_" class="st1" d="M360.6,366.7c0,0,0.4-0.4,1.1-1.2c0.7-0.8,1.9-1.8,3.2-3.3c0.6-0.7,1.4-1.4,2.1-2.3
				c0.7-0.9,1.6-1.8,2.4-2.8c0.8-1.1,1.7-2.1,2.5-3.3c0.8-1.2,1.7-2.4,2.6-3.7c0.4-0.7,0.8-1.3,1.3-2c0.2-0.3,0.4-0.7,0.7-1
				c0.2-0.4,0.4-0.7,0.6-1.1c0.4-0.7,0.8-1.5,1.2-2.2c0.4-0.7,0.8-1.5,1.2-2.3c0.8-1.5,1.5-3.2,2.2-4.8c0.4-0.8,0.6-1.7,1-2.5
				c0.3-0.9,0.7-1.7,0.9-2.6c0.3-0.9,0.6-1.8,0.8-2.7c0.2-0.9,0.5-1.8,0.7-2.7c0.3-0.9,0.4-1.8,0.6-2.8c0.2-0.9,0.4-1.9,0.5-2.8
				c0.1-1,0.3-1.9,0.4-2.9c0.1-1,0.2-1.9,0.3-2.9l0.1-1.4l0-1.5l0.1-2.7c-0.1-2.2-0.1-4.6-0.3-6.2l-0.1-1.3l-0.1-0.7l-0.1-0.7
				c-0.1-1-0.3-1.9-0.4-2.9c-0.1-0.9-0.4-1.9-0.6-2.8l-0.3-1.4l-0.4-1.4c-0.3-0.9-0.4-1.8-0.7-2.7c-0.3-0.9-0.6-1.8-0.9-2.7
				c-1.2-3.5-2.6-6.9-4.2-10c-1.5-3.1-3.3-6-5-8.6c-0.9-1.3-1.8-2.5-2.6-3.7c-0.9-1.1-1.8-2.2-2.6-3.3c-0.9-1-1.7-1.9-2.4-2.8
				c-0.8-0.9-1.5-1.6-2.2-2.3c-1.3-1.5-2.5-2.5-3.2-3.3c-0.8-0.8-1.2-1.2-1.2-1.2s0.6,0.1,1.6,0.4c1,0.3,2.6,0.6,4.5,1.4
				c0.9,0.4,2,0.7,3.1,1.3c1.1,0.5,2.3,1.1,3.6,1.8c1.2,0.7,2.5,1.5,3.9,2.4c1.3,0.9,2.7,1.9,4.1,3c2.7,2.3,5.6,5,8.2,8.2
				c2.7,3.2,5.1,7,7.2,11.1c0.5,1,1,2.1,1.5,3.2c0.5,1.1,0.9,2.2,1.3,3.3l0.6,1.7l0.5,1.7c0.3,1.2,0.7,2.3,1,3.5
				c1.1,4.5,1.7,10.4,1.7,14.4l0,0.2c0,0.6,0,0.2,0,0.3l0,0.1l0,0.1l0,0.5l0,0.9l-0.1,1.9c0,0.6,0,1.2-0.1,1.9l-0.2,1.8
				c-0.2,1.2-0.3,2.5-0.5,3.7c-0.2,1.2-0.5,2.4-0.7,3.6c-0.2,1.2-0.6,2.4-0.9,3.5c-0.3,1.2-0.7,2.3-1.1,3.4
				c-0.4,1.1-0.9,2.2-1.3,3.3c-0.5,1.1-1,2.1-1.5,3.2c-0.5,1.1-1,2-1.6,3c-0.6,1-1.1,2-1.7,2.9c-1.3,1.8-2.4,3.6-3.8,5.2
				c-2.6,3.3-5.5,6-8.2,8.3c-1.4,1.1-2.8,2.1-4.1,3.1c-1.4,0.9-2.7,1.7-3.9,2.4c-1.3,0.7-2.5,1.3-3.6,1.8c-1.1,0.5-2.2,0.9-3.2,1.3
				c-1.9,0.8-3.4,1.1-4.5,1.4C361.1,366.6,360.6,366.7,360.6,366.7z"/>
		</g>
		<g id="XMLID_36_">
			<path id="XMLID_64_" class="st1" d="M393.7,387.3c0,0,0.6-0.5,1.6-1.5c1-1,2.7-2.3,4.6-4.1c0.9-0.9,2-1.8,3.1-3
				c1.1-1.2,2.2-2.3,3.5-3.6c1.1-1.4,2.4-2.8,3.7-4.3c1.2-1.6,2.5-3.2,3.8-4.9c0.6-0.9,1.2-1.8,1.9-2.7c0.3-0.5,0.6-0.9,1-1.4
				c0.3-0.5,0.6-1,0.9-1.5c0.6-1,1.2-2,1.8-3c0.6-1,1.1-2.1,1.7-3.1c1.2-2.1,2.2-4.4,3.3-6.6c0.5-1.1,0.9-2.3,1.4-3.5
				c0.2-0.6,0.5-1.2,0.7-1.8c0.2-0.6,0.4-1.2,0.6-1.8c1.8-4.9,3-10.1,4-15.3c0.2-1.3,0.4-2.7,0.6-4c0.1-0.7,0.1-1.3,0.2-2l0.2-2
				l0.2-2c0-0.7,0-1.4,0.1-2l0.1-3.8c-0.1-2.9-0.1-6.2-0.4-8.6l-0.2-1.9l-0.1-1l-0.2-1c-0.2-1.3-0.4-2.7-0.6-4
				c-1.1-5.3-2.3-10.5-4.1-15.3c-0.4-1.2-0.9-2.4-1.4-3.6c-0.2-0.6-0.5-1.2-0.7-1.8c-0.2-0.6-0.5-1.2-0.7-1.7
				c-0.5-1.1-1.1-2.3-1.6-3.4c-0.3-0.6-0.5-1.1-0.8-1.6c-0.3-0.5-0.6-1.1-0.9-1.6c-2.2-4.3-4.9-8.1-7.3-11.6
				c-1.3-1.7-2.6-3.3-3.8-4.9c-1.3-1.5-2.5-2.9-3.7-4.3c-1.2-1.3-2.4-2.5-3.5-3.6c-1.1-1.1-2.2-2-3.1-3c-1.9-1.9-3.5-3.1-4.6-4.1
				c-1.1-1-1.6-1.5-1.6-1.5s0.7,0.2,2.1,0.7c0.7,0.2,1.5,0.5,2.5,0.8c1,0.3,2.1,0.8,3.3,1.3c1.2,0.6,2.6,1.1,4.1,1.9
				c1.4,0.8,3,1.7,4.7,2.6c1.6,1,3.3,2.2,5.1,3.4c1.7,1.3,3.5,2.7,5.3,4.2c3.5,3.2,7.3,6.8,10.6,11.2c1.8,2.1,3.3,4.5,4.9,7
				c0.8,1.2,1.5,2.5,2.2,3.8c0.7,1.3,1.5,2.6,2.1,4c0.6,1.4,1.3,2.8,1.9,4.2c0.6,1.4,1.1,2.9,1.6,4.4c0.3,0.7,0.5,1.5,0.8,2.2
				c0.2,0.8,0.4,1.5,0.7,2.3c0.4,1.5,0.9,3.1,1.2,4.6c0.3,1.6,0.6,3.2,1,4.7l0.2,1.2l0.2,1.3l0.3,2.5c0.5,3.5,0.5,6.3,0.6,9.4l0,0.3
				c0,0.6,0,0.2,0,0.4l0,0.1l0,0.2l0,0.6l0,1.2l-0.1,2.4c0,0.8-0.1,1.6-0.1,2.4l-0.3,2.4c-0.2,1.6-0.3,3.2-0.6,4.8
				c-0.3,1.6-0.6,3.2-0.9,4.7c-0.1,0.8-0.3,1.6-0.6,2.3c-0.2,0.8-0.4,1.5-0.6,2.3c-0.4,1.5-0.9,3.1-1.4,4.5
				c-0.5,1.5-1.1,2.9-1.6,4.4c-0.6,1.4-1.3,2.8-1.9,4.2c-0.3,0.7-0.6,1.4-1,2c-0.4,0.7-0.7,1.3-1.1,2c-0.7,1.3-1.4,2.6-2.2,3.8
				c-1.6,2.4-3.1,4.9-4.9,7c-3.3,4.4-7,8.1-10.5,11.3c-1.8,1.5-3.6,3-5.3,4.3c-1.8,1.2-3.5,2.4-5.1,3.4c-1.7,0.9-3.2,1.8-4.6,2.6
				c-1.4,0.8-2.9,1.4-4.1,1.9c-1.2,0.6-2.3,1.1-3.3,1.4c-1,0.3-1.8,0.6-2.5,0.9C394.4,387,393.7,387.3,393.7,387.3z"/>
		</g>
		<g id="XMLID_37_">
			<path id="XMLID_68_" class="st1" d="M423,406.3c0,0,0.7-0.6,2.1-1.7c1.3-1.1,3.5-2.7,5.8-4.9c0.6-0.5,1.2-1.1,1.9-1.7
				c0.7-0.6,1.4-1.2,2-1.9c1.4-1.4,2.9-2.8,4.5-4.4c1.5-1.7,3.1-3.4,4.7-5.2c1.5-2,3.2-3.9,4.9-6c0.8-1.1,1.6-2.2,2.4-3.3
				c0.4-0.6,0.8-1.1,1.2-1.7c0.4-0.6,0.8-1.2,1.2-1.8c0.8-1.2,1.6-2.4,2.4-3.7c0.8-1.2,1.5-2.6,2.2-3.9c1.6-2.6,2.9-5.4,4.3-8.3
				c0.4-0.7,0.6-1.5,0.9-2.2c0.3-0.7,0.6-1.5,0.9-2.2c0.3-0.7,0.6-1.5,1-2.2c0.3-0.7,0.5-1.5,0.8-2.3c2.4-6.1,3.9-12.7,5.2-19.4
				c0.3-1.7,0.5-3.4,0.8-5.1c0.2-0.8,0.2-1.7,0.3-2.6l0.3-2.6l0.3-2.6c0.1-0.9,0.1-1.7,0.1-2.6l0.1-4.9c-0.1-3.7-0.1-7.6-0.6-10.8
				l-0.2-2.5l-0.1-1.2l-0.2-1.3c-0.3-1.7-0.5-3.4-0.8-5.1c-1.4-6.7-3-13.2-5.4-19.3c-0.5-1.6-1.2-3-1.8-4.5
				c-0.3-0.7-0.6-1.5-0.9-2.2l-0.5-1.1c-0.2-0.4-0.3-0.7-0.5-1.1c-0.7-1.4-1.4-2.8-2.1-4.2l-0.5-1l-0.6-1c-0.4-0.7-0.8-1.3-1.1-2
				c-2.9-5.3-6.3-10-9.5-14.4c-1.7-2.1-3.3-4.1-4.9-6c-1.7-1.8-3.3-3.6-4.8-5.2c-1.6-1.5-3.1-3-4.5-4.4c-0.7-0.7-1.4-1.3-2.1-1.9
				c-0.7-0.6-1.3-1.2-1.9-1.7c-2.4-2.2-4.5-3.7-5.8-4.8c-1.4-1.1-2.1-1.7-2.1-1.7s0.9,0.3,2.6,0.9c0.8,0.3,1.9,0.7,3.1,1.2
				c1.2,0.4,2.6,1.1,4.1,1.8c1.5,0.7,3.2,1.5,5,2.5c1.8,1,3.6,2.1,5.7,3.3c1.9,1.3,4,2.8,6.1,4.3c2.1,1.6,4.2,3.4,6.4,5.3
				c4.2,4,8.8,8.6,12.8,14c2.1,2.6,3.9,5.6,5.9,8.6c1,1.5,1.8,3.1,2.7,4.7c0.9,1.6,1.8,3.2,2.5,4.9c0.8,1.7,1.6,3.4,2.3,5.1
				c0.7,1.8,1.3,3.6,2,5.4c0.3,0.9,0.6,1.8,1,2.7c0.3,0.9,0.5,1.9,0.8,2.8c0.5,1.9,1.1,3.8,1.5,5.7c0.4,1.9,0.8,3.9,1.1,5.8l0.3,1.5
				c0.1,0.5,0.1,1,0.2,1.5l0.3,3.1c0.6,4.3,0.6,7.8,0.7,11.5l0,0.3c0,0.6,0,0.2,0,0.4l0,0.1l0,0.2l0,0.7l-0.1,1.5l-0.1,3
				c0,1-0.1,2-0.1,3l-0.3,3c-0.2,2-0.4,4-0.8,5.9c-0.4,1.9-0.8,3.9-1.1,5.8c-0.1,0.5-0.2,1-0.3,1.4l-0.4,1.4
				c-0.3,0.9-0.5,1.9-0.8,2.8c-0.3,0.9-0.5,1.9-0.8,2.8c-0.2,0.9-0.6,1.8-0.9,2.7c-0.6,1.8-1.3,3.6-1.9,5.4
				c-0.7,1.7-1.5,3.4-2.3,5.1c-0.4,0.8-0.7,1.7-1.2,2.5c-0.4,0.8-0.9,1.6-1.3,2.4c-0.9,1.6-1.7,3.2-2.6,4.7c-2,3-3.7,6-5.8,8.6
				c-4,5.5-8.5,10.1-12.7,14.1c-1.1,1-2.2,1.9-3.3,2.8c-1.1,0.9-2.1,1.8-3.1,2.6c-2.2,1.5-4.2,3-6.1,4.4c-2,1.2-3.9,2.4-5.6,3.4
				c-1.7,1-3.5,1.8-5,2.5c-1.5,0.7-2.8,1.4-4,1.8c-1.2,0.5-2.2,0.9-3,1.2C423.9,405.9,423,406.3,423,406.3z"/>
		</g>
	</g>
</g>
<g id="border">
	<path id="XMLID_46_" class="st2" d="M479.3,543.8H125.1C88.8,543.8,59,514,59,477.7V123.5c0-36.3,29.7-66.1,66.1-66.1h354.1
		c36.3,0,66.1,29.7,66.1,66.1v354.1C545.3,514,515.6,543.8,479.3,543.8z"/>
	<path id="XMLID_28_" class="st2" d="M479.3,543.8H125.1C88.8,543.8,59,514,59,477.7V123.5c0-36.3,29.7-66.1,66.1-66.1h354.1
		c36.3,0,66.1,29.7,66.1,66.1v354.1C545.3,514,515.6,543.8,479.3,543.8z"/>
</g>
</svg>
